<svg xmlns="http://www.w3.org/2000/svg" width="400" height="400" viewBox="0 0 400 400">
  <!-- Scudo blu scuro esterno -->
  <path d="M200,10 L350,60 C350,60 380,300 200,390 C20,300 50,60 50,60 L200,10 Z" fill="#003087" />
  
  <!-- Scudo blu chiaro interno -->
  <path d="M200,40 L320,80 C320,80 345,280 200,350 C55,280 80,80 80,80 L200,40 Z" fill="#87CEFA" />
  
  <!-- Stelle blu scuro -->
  <polygon points="150,110 160,130 180,130 165,145 170,165 150,155 130,165 135,145 120,130 140,130" fill="#003087" />
  <polygon points="250,110 260,130 280,130 265,145 270,165 250,155 230,165 235,145 220,130 240,130" fill="#003087" />
  
  <!-- Immagine del trofeo -->
  <rect x="125" y="130" width="150" height="150" fill="white" />
  <path d="M175,150 L225,150 L235,160 L235,230 L225,240 L175,240 L165,230 L165,160 Z" fill="#FFD700" stroke="#B8860B" stroke-width="2" />
  <path d="M185,240 L215,240 L215,260 L205,270 L195,270 L185,260 Z" fill="#FFD700" stroke="#B8860B" stroke-width="2" />
  <rect x="190" y="270" width="20" height="10" fill="#FFD700" stroke="#B8860B" stroke-width="2" />
  <path d="M165,150 L155,145 L145,160 L155,175 L165,170 Z" fill="#FFD700" stroke="#B8860B" stroke-width="2" />
  <path d="M235,150 L245,145 L255,160 L245,175 L235,170 Z" fill="#FFD700" stroke="#B8860B" stroke-width="2" />
  
  <!-- Banner con testo -->
  <path d="M100,320 L200,350 L300,320 L300,340 L200,370 L100,340 Z" fill="#003087" />
  <text x="200" y="345" font-family="Arial" font-size="24" font-weight="bold" text-anchor="middle" fill="white">EARN CHALLENGE</text>
  
  <!-- Nastro sotto lo scudo -->
  <path d="M60,340 L100,340 L100,360 L60,360 Z" fill="#003087" />
  <path d="M340,340 L300,340 L300,360 L340,360 Z" fill="#003087" />
</svg>